<?xml version="1.0" encoding="UTF-8"?>
<svg xmlns="http://www.w3.org/2000/svg" xmlns:xlink="http://www.w3.org/1999/xlink" width="375pt" height="374.999991pt" viewBox="0 0 375 374.999991" version="1.2">
<defs>
<clipPath id="clip1">
  <path d="M 26.40625 47.890625 L 348.859375 47.890625 L 348.859375 337.390625 L 26.40625 337.390625 Z M 26.40625 47.890625 "/>
</clipPath>
</defs>
<g id="surface1">
<path style=" stroke:none;fill-rule:nonzero;fill:rgb(100%,100%,100%);fill-opacity:1;" d="M 202.988281 107.011719 C 203.027344 107.011719 203.066406 107.011719 203.105469 107.011719 C 207.726562 107.011719 212.667969 109.527344 212.816406 114.234375 C 212.820312 123.210938 212.820312 132.6875 212.824219 141.945312 C 212.84375 141.941406 212.863281 141.933594 212.878906 141.925781 C 212.878906 132.667969 212.878906 123.191406 212.875 114.214844 C 212.707031 109.445312 207.660156 106.945312 202.984375 106.957031 C 197.863281 107.007812 191.957031 110.125 190.453125 118.457031 C 190.460938 118.523438 190.46875 118.589844 190.480469 118.652344 C 191.925781 110.21875 197.851562 107.0625 202.988281 107.011719 "/>
<path style=" stroke:none;fill-rule:nonzero;fill:rgb(100%,100%,100%);fill-opacity:1;" d="M 218.527344 140.261719 C 218.527344 118.109375 218.519531 94.949219 218.507812 80.640625 C 218.503906 74.117188 224.296875 71.566406 229.253906 71.355469 C 235.589844 71.125 242.308594 74.253906 242.851562 80.804688 C 242.886719 81.238281 243.023438 81.632812 243.226562 81.984375 C 243.164062 97.246094 243.113281 117.101562 243.085938 140.941406 C 243.101562 140.949219 243.121094 140.953125 243.140625 140.957031 C 243.175781 114.070312 243.230469 95.1875 243.285156 81.960938 C 243.082031 81.613281 242.941406 81.222656 242.90625 80.796875 C 242.363281 74.214844 235.597656 71.019531 229.25 71.300781 C 224.265625 71.507812 218.449219 74.078125 218.453125 80.640625 C 218.460938 94.953125 218.46875 118.121094 218.472656 140.277344 C 218.488281 140.269531 218.507812 140.265625 218.527344 140.261719 "/>
<path style=" stroke:none;fill-rule:nonzero;fill:rgb(100%,100%,100%);fill-opacity:1;" d="M 132.179688 140.914062 C 132.148438 117.085938 132.101562 97.238281 132.035156 81.984375 C 132.238281 81.632812 132.378906 81.238281 132.414062 80.804688 C 132.957031 74.253906 139.675781 71.125 146.011719 71.355469 C 150.96875 71.5625 156.757812 74.121094 156.753906 80.640625 C 156.746094 94.953125 156.738281 118.125 156.734375 140.28125 C 156.753906 140.289062 156.773438 140.292969 156.792969 140.296875 C 156.796875 118.132812 156.800781 94.957031 156.8125 80.640625 C 156.816406 74.078125 150.996094 71.507812 146.015625 71.300781 C 139.640625 71.027344 132.902344 74.214844 132.355469 80.796875 C 132.320312 81.222656 132.179688 81.609375 131.976562 81.953125 C 132.042969 97.28125 132.09375 117.257812 132.121094 140.929688 C 132.140625 140.925781 132.160156 140.917969 132.179688 140.914062 "/>
<path style=" stroke:none;fill-rule:nonzero;fill:rgb(100%,100%,100%);fill-opacity:1;" d="M 259.585938 53.476562 C 259.570312 53.476562 259.550781 53.476562 259.535156 53.476562 C 254.460938 53.476562 249.035156 56.289062 248.976562 64.195312 C 248.890625 76.164062 248.785156 99.183594 248.730469 142.992188 C 248.75 143 248.769531 143.007812 248.785156 143.015625 C 248.832031 107.386719 248.914062 80.5 249.035156 64.195312 C 249.09375 56.332031 254.488281 53.53125 259.535156 53.53125 C 259.550781 53.53125 259.570312 53.53125 259.585938 53.53125 C 265.867188 53.558594 272.546875 57.90625 272.546875 65.921875 L 272.546875 163.386719 C 272.566406 163.421875 272.582031 163.457031 272.601562 163.488281 L 272.601562 65.917969 C 272.601562 57.867188 265.894531 53.496094 259.585938 53.476562 "/>
<path style=" stroke:none;fill-rule:nonzero;fill:rgb(100%,100%,100%);fill-opacity:1;" d="M 102.71875 65.921875 C 102.71875 57.90625 109.398438 53.558594 115.679688 53.53125 C 115.695312 53.53125 115.714844 53.53125 115.730469 53.53125 C 120.777344 53.53125 126.171875 56.332031 126.230469 64.195312 C 126.351562 80.496094 126.433594 107.367188 126.476562 142.980469 C 126.496094 142.972656 126.515625 142.964844 126.535156 142.957031 C 126.488281 107.660156 126.40625 80.351562 126.289062 64.195312 C 126.230469 56.289062 120.804688 53.476562 115.730469 53.476562 C 115.710938 53.476562 115.695312 53.476562 115.679688 53.476562 C 109.371094 53.5 102.660156 57.867188 102.660156 65.917969 L 102.660156 163.335938 C 102.679688 163.308594 102.699219 163.277344 102.71875 163.25 L 102.71875 65.921875 "/>
<path style=" stroke:none;fill-rule:nonzero;fill:rgb(100%,100%,100%);fill-opacity:1;" d="M 162.441406 141.976562 C 162.441406 132.707031 162.445312 123.222656 162.445312 114.234375 C 162.597656 109.527344 167.539062 107.011719 172.15625 107.011719 C 172.199219 107.011719 172.238281 107.011719 172.277344 107.011719 C 177.414062 107.0625 183.339844 110.21875 184.785156 118.652344 C 184.792969 118.585938 184.800781 118.523438 184.8125 118.457031 C 183.308594 110.125 177.398438 107.003906 172.277344 106.957031 C 167.628906 106.960938 162.550781 109.449219 162.390625 114.226562 C 162.386719 123.207031 162.386719 132.691406 162.382812 141.957031 C 162.402344 141.960938 162.421875 141.96875 162.441406 141.976562 "/>
<path style=" stroke:none;fill-rule:nonzero;fill:rgb(100%,100%,100%);fill-opacity:1;" d="M 102.949219 236.726562 C 104.644531 238.1875 106.15625 239.6875 107.53125 241.3125 C 107.609375 241.402344 107.664062 241.5 107.726562 241.597656 C 107.707031 241.488281 107.664062 241.378906 107.578125 241.277344 C 106.101562 239.597656 104.550781 238.097656 102.949219 236.726562 "/>
<path style=" stroke:none;fill-rule:nonzero;fill:rgb(100%,100%,100%);fill-opacity:1;" d="M 101.984375 235.933594 C 101.257812 235.34375 100.527344 234.777344 99.785156 234.234375 C 100.527344 234.773438 101.257812 235.34375 101.984375 235.933594 "/>
<path style=" stroke:none;fill-rule:nonzero;fill:rgb(100%,100%,100%);fill-opacity:1;" d="M 75.015625 218.117188 C 75.613281 212.859375 75.277344 197.414062 74.65625 171.996094 C 73.9375 142.621094 73.042969 106.058594 74.472656 89.363281 C 75.140625 81.566406 80.40625 77.675781 85.015625 77.363281 C 89.367188 77.074219 94.777344 79.90625 96.789062 88.796875 C 96.839844 89.015625 96.917969 89.222656 97.011719 89.417969 L 97.011719 176.414062 C 97.03125 176.34375 97.046875 176.277344 97.070312 176.203125 L 97.070312 89.402344 C 96.972656 89.207031 96.894531 89.007812 96.84375 88.785156 C 94.824219 79.863281 89.375 77.011719 85.011719 77.304688 C 80.378906 77.621094 75.085938 81.53125 74.414062 89.359375 C 72.988281 106.054688 73.882812 142.617188 74.597656 171.992188 C 75.222656 197.464844 75.558594 212.921875 74.953125 218.144531 C 78.730469 221.976562 83.582031 224.675781 88.65625 227.457031 C 92.066406 229.324219 95.5625 231.253906 98.921875 233.605469 C 95.585938 231.25 92.117188 229.285156 88.683594 227.40625 C 83.625 224.632812 78.785156 221.9375 75.015625 218.117188 "/>
<path style=" stroke:none;fill-rule:nonzero;fill:rgb(100%,100%,100%);fill-opacity:1;" d="M 278.476562 88.796875 C 280.488281 79.90625 285.894531 77.074219 290.246094 77.363281 C 294.859375 77.675781 300.121094 81.566406 300.789062 89.363281 C 302.21875 106.058594 301.324219 142.621094 300.609375 171.996094 C 299.988281 197.414062 299.648438 212.859375 300.25 218.117188 C 296.480469 221.9375 291.640625 224.632812 286.578125 227.40625 C 283.148438 229.285156 279.679688 231.25 276.347656 233.601562 C 279.707031 231.253906 283.195312 229.324219 286.609375 227.457031 C 291.683594 224.671875 296.535156 221.976562 300.308594 218.144531 C 299.707031 212.921875 300.042969 197.457031 300.664062 171.980469 C 301.382812 142.609375 302.273438 106.054688 300.847656 89.359375 C 300.175781 81.527344 294.886719 77.621094 290.253906 77.304688 C 285.859375 77.015625 280.4375 79.863281 278.421875 88.785156 C 278.371094 89.007812 278.289062 89.207031 278.195312 89.402344 L 278.195312 176.519531 C 278.214844 176.589844 278.230469 176.65625 278.25 176.730469 L 278.25 89.417969 C 278.347656 89.222656 278.425781 89.019531 278.476562 88.796875 "/>
<path style=" stroke:none;fill-rule:nonzero;fill:rgb(100%,100%,100%);fill-opacity:1;" d="M 267.6875 241.277344 C 267.597656 241.378906 267.554688 241.488281 267.535156 241.597656 C 267.601562 241.503906 267.65625 241.402344 267.734375 241.316406 C 269.109375 239.6875 270.617188 238.1875 272.300781 236.734375 C 270.703125 238.105469 269.15625 239.601562 267.6875 241.277344 "/>
<path style=" stroke:none;fill-rule:nonzero;fill:rgb(100%,100%,100%);fill-opacity:1;" d="M 275.46875 234.242188 C 274.738281 234.777344 274.015625 235.335938 273.304688 235.917969 C 274.015625 235.335938 274.738281 234.773438 275.46875 234.242188 "/>
<path style=" stroke:none;fill-rule:nonzero;fill:rgb(98.429871%,80.778503%,61.178589%);fill-opacity:1;" d="M 203.105469 107.015625 C 203.066406 107.015625 203.027344 107.015625 202.984375 107.015625 C 197.851562 107.0625 191.925781 110.222656 190.476562 118.65625 C 190.636719 119.824219 190.75 121.039062 190.765625 122.339844 C 190.882812 131.925781 191.0625 141.652344 191.25 151.390625 C 191.265625 152.378906 191.285156 153.371094 191.304688 154.363281 C 198.0625 148.769531 205.394531 144.554688 212.820312 141.945312 C 212.820312 132.6875 212.820312 123.210938 212.816406 114.238281 C 212.664062 109.527344 207.726562 107.015625 203.105469 107.015625 "/>
<path style=" stroke:none;fill-rule:nonzero;fill:rgb(98.429871%,80.778503%,61.178589%);fill-opacity:1;" d="M 268.066406 245.25 C 266.972656 244.332031 266.777344 242.761719 267.539062 241.597656 C 267.558594 241.488281 267.597656 241.378906 267.6875 241.277344 C 269.160156 239.601562 270.707031 238.105469 272.300781 236.734375 C 272.40625 236.644531 272.496094 236.550781 272.597656 236.460938 C 272.828125 236.265625 273.070312 236.105469 273.304688 235.917969 C 274.019531 235.335938 274.738281 234.777344 275.46875 234.242188 C 275.761719 234.027344 276.054688 233.808594 276.347656 233.601562 C 279.683594 231.25 283.148438 229.285156 286.582031 227.40625 C 291.640625 224.632812 296.480469 221.9375 300.25 218.117188 C 299.652344 212.859375 299.988281 197.414062 300.609375 171.996094 C 301.324219 142.617188 302.21875 106.058594 300.789062 89.363281 C 300.125 81.566406 294.855469 77.675781 290.246094 77.359375 C 285.898438 77.074219 280.484375 79.90625 278.476562 88.796875 C 278.425781 89.015625 278.347656 89.222656 278.253906 89.414062 L 278.253906 176.730469 C 278.390625 177.230469 278.535156 177.734375 278.652344 178.207031 C 283.453125 197.382812 280.5 212.503906 251.03125 241.9375 L 197.554688 289.046875 C 198.75 292.757812 200.09375 296.148438 201.628906 299.128906 C 207.238281 310.046875 207.578125 326.726562 207.398438 334.34375 C 207.386719 334.886719 207.824219 335.328125 208.363281 335.332031 L 287.941406 335.832031 C 288.621094 335.835938 289.167969 335.292969 289.148438 334.617188 C 288.933594 326.105469 289.308594 307.3125 296.222656 298.660156 C 298.878906 295.335938 302.324219 292.078125 305.980469 288.621094 C 317.09375 278.113281 330.925781 265.035156 333.351562 240.113281 C 334.804688 225.214844 340.730469 184.753906 343.015625 172.128906 C 343.601562 168.910156 342.847656 165.78125 340.960938 163.539062 C 339.449219 161.753906 337.722656 160.976562 335.691406 161.164062 C 331.65625 161.539062 326.941406 165.660156 323.378906 171.929688 C 317.5625 182.164062 313.730469 197.761719 311.542969 209.046875 C 311.082031 211.421875 310.457031 213.3125 309.578125 215 C 304.984375 223.820312 297.023438 228.183594 289.328125 232.402344 C 283.21875 235.746094 276.90625 239.207031 272.046875 244.957031 C 272.046875 244.957031 272.023438 244.945312 271.988281 244.929688 C 270.992188 246.097656 269.238281 246.242188 268.066406 245.25 "/>
<path style=" stroke:none;fill-rule:nonzero;fill:rgb(98.429871%,80.778503%,61.178589%);fill-opacity:1;" d="M 242.851562 80.804688 C 242.308594 74.253906 235.589844 71.125 229.253906 71.355469 C 224.292969 71.5625 218.503906 74.117188 218.511719 80.640625 C 218.519531 94.949219 218.527344 118.109375 218.527344 140.261719 C 222.375 139.34375 226.207031 138.859375 229.96875 138.859375 C 233.902344 138.859375 237.761719 139.382812 241.441406 140.414062 C 242.015625 140.574219 242.527344 140.769531 243.082031 140.941406 C 243.113281 117.101562 243.160156 97.246094 243.230469 81.984375 C 243.023438 81.632812 242.886719 81.238281 242.851562 80.804688 "/>
<path style=" stroke:none;fill-rule:nonzero;fill:rgb(98.429871%,80.778503%,61.178589%);fill-opacity:1;" d="M 259.585938 53.53125 C 259.570312 53.53125 259.550781 53.53125 259.535156 53.53125 C 254.488281 53.53125 249.09375 56.332031 249.035156 64.195312 C 248.914062 80.5 248.832031 107.386719 248.785156 143.019531 C 260.605469 148.027344 267.992188 155.796875 272.546875 163.386719 L 272.546875 65.921875 C 272.546875 57.90625 265.867188 53.558594 259.585938 53.53125 "/>
<g clip-path="url(#clip1)" clip-rule="nonzero">
<path style=" stroke:none;fill-rule:nonzero;fill:rgb(54.508972%,25.878906%,44.709778%);fill-opacity:1;" d="M 272.542969 163.386719 C 267.992188 155.796875 260.605469 148.027344 248.785156 143.019531 C 248.769531 143.007812 248.746094 143 248.726562 142.992188 C 248.785156 99.183594 248.890625 76.164062 248.976562 64.195312 C 249.035156 56.289062 254.460938 53.476562 259.535156 53.476562 C 259.550781 53.476562 259.570312 53.476562 259.585938 53.476562 C 265.894531 53.5 272.601562 57.871094 272.601562 65.921875 L 272.601562 163.492188 C 272.582031 163.457031 272.566406 163.421875 272.542969 163.386719 Z M 102.660156 65.921875 C 102.660156 57.871094 109.367188 53.5 115.675781 53.476562 C 115.695312 53.476562 115.710938 53.476562 115.726562 53.476562 C 120.804688 53.476562 126.230469 56.289062 126.289062 64.195312 C 126.40625 80.355469 126.488281 107.65625 126.535156 142.957031 C 126.515625 142.964844 126.496094 142.972656 126.476562 142.980469 C 114.679688 147.960938 107.289062 155.6875 102.71875 163.25 C 102.699219 163.277344 102.679688 163.308594 102.660156 163.335938 Z M 132.355469 80.796875 C 132.902344 74.214844 139.640625 71.027344 146.015625 71.300781 C 150.996094 71.507812 156.816406 74.078125 156.8125 80.640625 C 156.800781 94.957031 156.796875 118.132812 156.792969 140.296875 C 156.773438 140.292969 156.753906 140.289062 156.734375 140.285156 C 152.863281 139.351562 149 138.859375 145.210938 138.859375 C 141.277344 138.859375 137.414062 139.382812 133.734375 140.414062 C 133.191406 140.5625 132.707031 140.75 132.179688 140.914062 C 132.160156 140.917969 132.140625 140.925781 132.121094 140.933594 C 132.089844 117.261719 132.042969 97.28125 131.976562 81.953125 C 132.179688 81.609375 132.320312 81.222656 132.355469 80.796875 Z M 172.277344 106.957031 C 177.398438 107.003906 183.308594 110.128906 184.8125 118.457031 C 184.800781 118.523438 184.792969 118.585938 184.785156 118.65625 C 184.980469 119.808594 185.101562 121.050781 185.117188 122.410156 C 185.234375 132.007812 185.417969 141.75 185.601562 151.496094 C 185.628906 152.960938 185.65625 154.429688 185.683594 155.894531 C 178.457031 149.554688 170.503906 144.824219 162.441406 141.976562 C 162.421875 141.972656 162.402344 141.964844 162.382812 141.957031 C 162.382812 132.691406 162.386719 123.207031 162.390625 114.226562 C 162.550781 109.449219 167.628906 106.960938 172.277344 106.957031 Z M 202.984375 106.957031 C 207.660156 106.945312 212.707031 109.445312 212.875 114.21875 C 212.878906 123.191406 212.878906 132.667969 212.878906 141.925781 C 212.859375 141.933594 212.84375 141.941406 212.824219 141.945312 C 205.394531 144.554688 198.066406 148.769531 191.304688 154.363281 C 191.285156 153.371094 191.265625 152.378906 191.246094 151.390625 C 191.0625 141.652344 190.882812 131.921875 190.765625 122.339844 C 190.75 121.039062 190.636719 119.828125 190.480469 118.652344 C 190.46875 118.585938 190.460938 118.523438 190.453125 118.457031 C 191.957031 110.128906 197.863281 107.007812 202.984375 106.957031 Z M 101.949219 179.5625 C 104.953125 167.570312 113.164062 151.976562 135.246094 145.789062 C 138.433594 144.898438 141.785156 144.445312 145.210938 144.445312 C 158.433594 144.445312 173.421875 151.441406 185.308594 163.164062 L 185.613281 163.464844 C 186.703125 164.554688 188.472656 164.554688 189.566406 163.464844 L 189.863281 163.167969 C 201.753906 151.441406 216.746094 144.445312 229.964844 144.445312 C 233.390625 144.445312 236.742188 144.898438 239.933594 145.789062 C 262.015625 151.976562 270.226562 167.570312 273.230469 179.5625 C 277.613281 197.074219 274.816406 210.28125 247.203125 237.871094 L 187.589844 290.378906 L 127.453125 237.339844 C 100.714844 210.632812 97.851562 195.929688 101.949219 179.5625 Z M 229.25 71.300781 C 235.597656 71.019531 242.363281 74.214844 242.90625 80.796875 C 242.941406 81.222656 243.082031 81.617188 243.285156 81.960938 C 243.230469 95.191406 243.175781 114.070312 243.140625 140.960938 C 243.121094 140.953125 243.101562 140.949219 243.085938 140.941406 C 242.527344 140.769531 242.015625 140.574219 241.441406 140.414062 C 237.761719 139.382812 233.902344 138.859375 229.964844 138.859375 C 226.207031 138.859375 222.371094 139.34375 218.527344 140.261719 C 218.507812 140.265625 218.492188 140.269531 218.472656 140.277344 C 218.46875 118.121094 218.460938 94.953125 218.453125 80.640625 C 218.449219 74.078125 224.265625 71.507812 229.25 71.300781 Z M 335.230469 155.542969 C 329.1875 156.070312 323.078125 161.027344 318.464844 169.144531 C 312.269531 180.039062 308.261719 196.277344 305.996094 207.976562 C 305.875 208.585938 305.734375 209.144531 305.585938 209.6875 C 305.558594 200.765625 305.910156 186.285156 306.253906 172.113281 C 306.976562 142.609375 307.871094 105.882812 306.417969 88.882812 C 305.605469 79.367188 299.113281 72.316406 290.632812 71.734375 C 286.664062 71.460938 281.90625 72.855469 278.195312 76.898438 L 278.195312 65.921875 C 278.195312 54.253906 268.617188 47.925781 259.605469 47.890625 C 251.609375 47.929688 243.46875 52.878906 243.386719 64.15625 C 243.371094 65.96875 243.355469 68.046875 243.34375 70.398438 C 239.492188 67.101562 234.070312 65.511719 229.019531 65.722656 C 220.972656 66.054688 212.851562 70.800781 212.859375 80.644531 C 212.863281 87.03125 212.867188 95.179688 212.871094 104.21875 C 210.25 102.421875 206.875 101.371094 203.121094 101.371094 C 203.058594 101.371094 202.996094 101.371094 202.933594 101.371094 C 197.054688 101.429688 191.125 104.21875 187.632812 110.085938 C 184.136719 104.21875 178.207031 101.425781 172.328125 101.371094 C 168.496094 101.34375 165.054688 102.398438 162.390625 104.222656 C 162.394531 95.183594 162.398438 87.03125 162.402344 80.644531 C 162.410156 70.800781 154.292969 66.054688 146.246094 65.722656 C 141.167969 65.511719 135.757812 67.097656 131.917969 70.382812 C 131.90625 68.15625 131.894531 66.074219 131.878906 64.15625 C 131.796875 52.910156 123.71875 47.890625 115.726562 47.890625 C 115.707031 47.890625 115.679688 47.890625 115.65625 47.890625 C 106.648438 47.925781 97.070312 54.253906 97.070312 65.921875 L 97.070312 76.898438 C 93.355469 72.859375 88.597656 71.464844 84.628906 71.734375 C 76.152344 72.316406 69.660156 79.367188 68.847656 88.882812 C 67.390625 105.886719 68.289062 142.613281 69.007812 172.125 C 69.355469 186.292969 69.707031 200.773438 69.679688 209.691406 C 69.527344 209.148438 69.386719 208.585938 69.269531 207.976562 C 67 196.28125 62.996094 180.046875 56.796875 169.144531 C 52.183594 161.027344 46.070312 156.070312 40.03125 155.542969 C 36.097656 155.207031 32.59375 156.75 29.882812 160.027344 C 26.980469 163.539062 25.816406 168.3125 26.6875 173.125 C 29.167969 186.808594 34.933594 226.746094 36.289062 240.65625 C 38.921875 267.683594 54.222656 282.152344 65.402344 292.71875 C 68.90625 296.035156 72.21875 299.164062 74.625 302.179688 C 78.664062 307.234375 80.847656 319.328125 80.460938 334.527344 C 80.421875 336.070312 81.640625 337.351562 83.183594 337.390625 C 83.207031 337.390625 83.230469 337.390625 83.257812 337.390625 C 84.765625 337.390625 86.011719 336.1875 86.050781 334.671875 C 86.300781 324.84375 85.714844 307.105469 78.996094 298.695312 C 76.34375 295.378906 72.894531 292.113281 69.246094 288.664062 C 58.125 278.148438 44.28125 265.0625 41.855469 240.117188 C 40.398438 225.1875 34.472656 184.726562 32.191406 172.128906 C 31.613281 168.9375 32.34375 165.824219 34.195312 163.582031 C 35.722656 161.738281 37.492188 160.929688 39.542969 161.105469 C 43.605469 161.460938 48.351562 165.597656 51.933594 171.902344 C 57.757812 182.148438 61.589844 197.753906 63.777344 209.042969 C 64.25 211.460938 64.945312 213.503906 65.90625 215.292969 C 70.515625 223.882812 78.371094 228.1875 85.96875 232.351562 C 90.425781 234.792969 95.03125 237.320312 99.046875 240.722656 C 100.625 242.0625 102.007812 243.433594 103.261719 244.917969 C 103.265625 244.925781 103.269531 244.925781 103.273438 244.929688 C 104.273438 246.097656 106.027344 246.242188 107.199219 245.25 C 108.289062 244.332031 108.488281 242.761719 107.726562 241.597656 C 107.664062 241.5 107.609375 241.402344 107.53125 241.316406 C 106.15625 239.6875 104.644531 238.1875 102.949219 236.726562 C 102.851562 236.640625 102.765625 236.546875 102.664062 236.460938 C 102.441406 236.273438 102.207031 236.117188 101.984375 235.9375 C 101.257812 235.34375 100.527344 234.773438 99.785156 234.234375 C 99.496094 234.023438 99.210938 233.808594 98.921875 233.605469 C 95.5625 231.253906 92.066406 229.324219 88.65625 227.457031 C 83.582031 224.675781 78.730469 221.976562 74.953125 218.144531 C 75.558594 212.921875 75.222656 197.464844 74.597656 171.992188 C 73.882812 142.617188 72.988281 106.054688 74.414062 89.359375 C 75.085938 81.53125 80.378906 77.621094 85.011719 77.304688 C 89.375 77.011719 94.824219 79.863281 96.84375 88.785156 C 96.894531 89.003906 96.976562 89.207031 97.070312 89.402344 L 97.070312 176.203125 C 97.046875 176.277344 97.03125 176.34375 97.011719 176.414062 C 96.835938 177.03125 96.667969 177.636719 96.527344 178.207031 C 91.183594 199.554688 98.242188 216.0625 123.625 241.40625 L 177.691406 289.097656 L 177.738281 289.140625 C 176.550781 292.824219 175.210938 296.191406 173.6875 299.15625 C 168.257812 309.714844 167.746094 325.636719 167.921875 334.183594 C 167.957031 335.707031 169.203125 336.917969 170.71875 336.917969 C 170.738281 336.917969 170.757812 336.917969 170.777344 336.917969 C 172.320312 336.886719 173.546875 335.609375 173.515625 334.070312 C 173.382812 327.609375 173.613281 311.527344 178.660156 301.707031 C 179.996094 299.113281 181.195312 296.246094 182.28125 293.148438 L 184.074219 294.726562 C 185.046875 295.585938 186.296875 296.054688 187.589844 296.054688 C 188.886719 296.054688 190.132812 295.585938 191.105469 294.726562 L 192.960938 293.09375 C 194.054688 296.210938 195.261719 299.097656 196.601562 301.707031 C 201.652344 311.535156 201.882812 327.613281 201.746094 334.066406 C 201.714844 335.609375 202.941406 336.886719 204.484375 336.917969 C 204.503906 336.917969 204.523438 336.917969 204.542969 336.917969 C 206.058594 336.917969 207.304688 335.707031 207.339844 334.1875 C 207.519531 325.640625 207.007812 309.726562 201.574219 299.15625 C 200.042969 296.179688 198.703125 292.792969 197.507812 289.085938 L 197.554688 289.046875 L 251.03125 241.9375 C 280.5 212.503906 283.453125 197.382812 278.652344 178.207031 C 278.535156 177.734375 278.390625 177.230469 278.25 176.730469 C 278.230469 176.660156 278.214844 176.589844 278.195312 176.519531 L 278.195312 89.402344 C 278.289062 89.207031 278.371094 89.003906 278.417969 88.785156 C 280.4375 79.859375 285.859375 77.011719 290.25 77.304688 C 294.882812 77.621094 300.175781 81.53125 300.847656 89.359375 C 302.273438 106.054688 301.382812 142.609375 300.667969 171.980469 C 300.042969 197.457031 299.707031 212.921875 300.3125 218.144531 C 296.535156 221.976562 291.683594 224.671875 286.609375 227.457031 C 283.195312 229.324219 279.707031 231.253906 276.347656 233.601562 C 276.050781 233.808594 275.761719 234.027344 275.46875 234.242188 C 274.734375 234.773438 274.015625 235.335938 273.300781 235.917969 C 273.070312 236.105469 272.828125 236.269531 272.601562 236.460938 C 272.496094 236.550781 272.40625 236.644531 272.300781 236.734375 C 270.617188 238.1875 269.109375 239.6875 267.734375 241.316406 C 267.65625 241.402344 267.601562 241.503906 267.539062 241.597656 C 266.777344 242.761719 266.972656 244.332031 268.0625 245.25 C 269.238281 246.242188 270.992188 246.097656 271.992188 244.933594 C 271.996094 244.925781 272 244.925781 272.003906 244.917969 C 273.265625 243.429688 274.640625 242.054688 276.21875 240.722656 C 280.230469 237.320312 284.839844 234.792969 289.296875 232.351562 C 296.894531 228.1875 304.746094 223.882812 309.355469 215.296875 C 310.320312 213.503906 311.015625 211.457031 311.484375 209.039062 C 313.675781 197.75 317.503906 182.136719 323.328125 171.902344 C 326.914062 165.597656 331.65625 161.460938 335.71875 161.105469 C 337.804688 160.921875 339.542969 161.738281 341.070312 163.582031 C 342.921875 165.824219 343.652344 168.9375 343.074219 172.128906 C 340.789062 184.726562 334.863281 225.1875 333.410156 240.117188 C 330.980469 265.0625 317.140625 278.148438 306.019531 288.664062 C 302.367188 292.113281 298.917969 295.378906 296.265625 298.695312 C 289.550781 307.101562 288.964844 324.84375 289.210938 334.667969 C 289.25 336.1875 290.496094 337.390625 292.007812 337.390625 C 292.03125 337.390625 292.054688 337.390625 292.078125 337.390625 C 293.621094 337.351562 294.839844 336.070312 294.804688 334.527344 C 294.417969 319.324219 296.601562 307.230469 300.636719 302.179688 C 303.042969 299.164062 306.359375 296.035156 309.863281 292.71875 C 321.039062 282.152344 336.34375 267.683594 338.976562 240.660156 C 340.332031 226.746094 346.09375 186.808594 348.574219 173.125 C 349.449219 168.3125 348.285156 163.539062 345.382812 160.027344 C 342.671875 156.75 339.164062 155.195312 335.230469 155.542969 "/>
</g>
<path style=" stroke:none;fill-rule:nonzero;fill:rgb(98.429871%,80.778503%,61.178589%);fill-opacity:1;" d="M 146.011719 71.355469 C 139.675781 71.125 132.957031 74.253906 132.414062 80.804688 C 132.378906 81.238281 132.238281 81.632812 132.035156 81.984375 C 132.101562 97.238281 132.148438 117.085938 132.179688 140.914062 C 132.707031 140.75 133.191406 140.566406 133.734375 140.414062 C 137.414062 139.382812 141.277344 138.859375 145.210938 138.859375 C 149 138.859375 152.863281 139.351562 156.734375 140.285156 C 156.738281 118.121094 156.746094 94.953125 156.753906 80.640625 C 156.757812 74.117188 150.96875 71.5625 146.011719 71.355469 "/>
<path style=" stroke:none;fill-rule:nonzero;fill:rgb(98.429871%,80.778503%,61.178589%);fill-opacity:1;" d="M 96.527344 178.207031 C 96.667969 177.636719 96.835938 177.03125 97.011719 176.417969 L 97.011719 89.414062 C 96.917969 89.222656 96.839844 89.015625 96.789062 88.796875 C 94.777344 79.90625 89.367188 77.074219 85.015625 77.363281 C 80.40625 77.675781 75.140625 81.566406 74.472656 89.363281 C 73.042969 106.058594 73.9375 142.621094 74.65625 171.996094 C 75.277344 197.414062 75.613281 212.859375 75.015625 218.117188 C 78.785156 221.9375 83.625 224.632812 88.683594 227.40625 C 92.117188 229.285156 95.585938 231.25 98.921875 233.601562 C 99.210938 233.808594 99.496094 234.023438 99.785156 234.234375 C 100.527344 234.777344 101.257812 235.34375 101.984375 235.933594 C 102.207031 236.117188 102.441406 236.273438 102.664062 236.460938 C 102.765625 236.546875 102.851562 236.636719 102.949219 236.726562 C 104.550781 238.097656 106.101562 239.597656 107.578125 241.277344 C 107.664062 241.378906 107.707031 241.488281 107.726562 241.597656 C 108.488281 242.761719 108.292969 244.332031 107.199219 245.25 C 106.027344 246.242188 104.273438 246.097656 103.273438 244.929688 C 103.238281 244.945312 103.21875 244.957031 103.21875 244.957031 C 98.359375 239.207031 92.046875 235.75 85.9375 232.402344 C 78.242188 228.183594 70.28125 223.820312 65.6875 215 C 64.804688 213.3125 64.183594 211.421875 63.722656 209.046875 C 61.535156 197.761719 57.703125 182.164062 51.886719 171.929688 C 48.324219 165.660156 43.605469 161.539062 39.574219 161.164062 C 37.539062 160.976562 35.8125 161.753906 34.304688 163.539062 C 32.414062 165.78125 31.664062 168.910156 32.25 172.132812 C 34.535156 184.753906 40.460938 225.214844 41.910156 240.113281 C 44.339844 265.035156 58.171875 278.113281 69.285156 288.621094 C 72.9375 292.078125 76.386719 295.335938 79.042969 298.660156 C 85.957031 307.3125 86.332031 326.105469 86.113281 334.617188 C 86.097656 335.292969 86.644531 335.835938 87.320312 335.832031 L 166.902344 335.332031 C 167.441406 335.328125 167.878906 334.886719 167.867188 334.34375 C 167.6875 326.726562 168.027344 310.046875 173.636719 299.128906 C 175.164062 296.160156 176.5 292.789062 177.691406 289.097656 L 123.625 241.40625 C 98.242188 216.0625 91.183594 199.554688 96.527344 178.207031 "/>
<path style=" stroke:none;fill-rule:nonzero;fill:rgb(98.429871%,80.778503%,61.178589%);fill-opacity:1;" d="M 172.277344 107.015625 C 172.238281 107.015625 172.195312 107.015625 172.15625 107.015625 C 167.539062 107.015625 162.597656 109.527344 162.445312 114.238281 C 162.445312 123.222656 162.441406 132.710938 162.441406 141.976562 C 170.503906 144.824219 178.453125 149.554688 185.679688 155.898438 C 185.65625 154.429688 185.628906 152.960938 185.601562 151.496094 C 185.417969 141.75 185.234375 132.003906 185.117188 122.410156 C 185.101562 121.054688 184.980469 119.808594 184.785156 118.65625 C 183.339844 110.222656 177.410156 107.0625 172.277344 107.015625 "/>
<path style=" stroke:none;fill-rule:nonzero;fill:rgb(98.429871%,80.778503%,61.178589%);fill-opacity:1;" d="M 115.730469 53.53125 C 115.714844 53.53125 115.695312 53.53125 115.679688 53.53125 C 109.398438 53.558594 102.71875 57.90625 102.71875 65.921875 L 102.71875 163.25 C 107.289062 155.6875 114.679688 147.957031 126.476562 142.980469 C 126.433594 107.367188 126.351562 80.496094 126.230469 64.195312 C 126.171875 56.332031 120.777344 53.53125 115.730469 53.53125 "/>
<path style=" stroke:none;fill-rule:nonzero;fill:rgb(25.878906%,73.728943%,39.99939%);fill-opacity:1;" d="M 187.589844 290.378906 L 247.203125 237.871094 C 274.816406 210.28125 277.613281 197.070312 273.230469 179.5625 C 270.226562 167.570312 262.011719 151.976562 239.933594 145.789062 C 236.742188 144.894531 233.390625 144.445312 229.964844 144.445312 C 216.746094 144.445312 201.753906 151.441406 189.863281 163.167969 L 189.566406 163.464844 C 188.472656 164.554688 186.703125 164.554688 185.613281 163.464844 L 185.308594 163.164062 C 173.421875 151.441406 158.433594 144.445312 145.210938 144.445312 C 141.785156 144.445312 138.433594 144.894531 135.246094 145.789062 C 113.164062 151.976562 104.953125 167.570312 101.949219 179.5625 C 97.851562 195.929688 100.714844 210.632812 127.453125 237.339844 L 187.589844 290.378906 "/>
</g>
</svg>
