<?xml version="1.0" encoding="UTF-8"?>
<svg xmlns="http://www.w3.org/2000/svg" xmlns:xlink="http://www.w3.org/1999/xlink" width="375pt" height="374.999991pt" viewBox="0 0 375 374.999991" version="1.2">
<defs>
<clipPath id="clip1">
  <path d="M 10.082031 66.210938 L 202 66.210938 L 202 300 L 10.082031 300 Z M 10.082031 66.210938 "/>
</clipPath>
</defs>
<g id="surface1">
<path style=" stroke:none;fill-rule:nonzero;fill:rgb(76.469421%,51.368713%,40.779114%);fill-opacity:1;" d="M 217.046875 210.152344 C 217.046875 209.589844 211.496094 201.734375 209.035156 194.71875 C 206.574219 187.707031 203.269531 176.972656 201.441406 171.921875 C 199.613281 166.800781 197.714844 156.628906 195.1875 151.71875 C 192.726562 146.808594 192.445312 144.425781 190.96875 139.515625 C 189.492188 134.605469 189.070312 123.660156 190.96875 119.734375 C 190.96875 119.734375 193.570312 118.261719 195.886719 118.539062 C 198.207031 118.820312 198.980469 122.609375 198.769531 125.414062 C 198.628906 128.152344 201.089844 136.640625 202.003906 138.320312 C 202.917969 140.003906 209.597656 153.261719 210.160156 156.070312 C 210.160156 156.070312 210.300781 150.246094 208.683594 146.039062 C 207.066406 141.828125 198.207031 121.699219 198.910156 118.539062 C 199.613281 115.382812 204.605469 114.964844 206.785156 115.945312 C 208.964844 116.925781 213.042969 121.628906 214.9375 124.152344 C 216.835938 126.679688 220.351562 136.707031 221.054688 139.9375 C 221.757812 143.164062 221.476562 145.335938 221.054688 146.179688 C 220.632812 147.019531 220.210938 148.773438 220.210938 148.773438 C 220.210938 148.773438 221.40625 148.074219 222.53125 145.6875 C 223.726562 143.371094 222.8125 139.867188 222.53125 138.53125 C 222.25 137.199219 217.890625 124.433594 216.273438 123.101562 C 214.65625 121.769531 209.878906 115.875 209.597656 115.3125 C 209.316406 114.753906 212.480469 111.878906 218.59375 112.015625 C 224.710938 112.15625 227.59375 116.925781 228.789062 119.453125 C 229.984375 121.90625 233.144531 129.765625 234.199219 132.570312 C 235.253906 135.304688 237.433594 139.09375 239.613281 139.234375 C 239.613281 139.234375 238.277344 136.007812 235.816406 133.132812 C 233.355469 130.253906 233.496094 123.941406 232.160156 121.90625 C 230.828125 119.875 226.890625 114.261719 224.710938 112.789062 C 224.710938 112.789062 227.453125 109.421875 235.324219 109.5625 C 243.199219 109.703125 249.171875 124.996094 251.210938 131.9375 C 253.25 138.882812 255.710938 142.53125 257.046875 147.933594 C 258.382812 153.332031 259.648438 166.800781 259.648438 166.800781 L 261.757812 176.550781 L 263.375 181.671875 C 256.414062 180.832031 254.515625 182.234375 252.125 183.003906 C 249.804688 183.707031 249.523438 185.179688 243.972656 188.40625 C 238.417969 191.632812 229 198.15625 226.46875 199.140625 C 224.078125 200.261719 217.046875 210.152344 217.046875 210.152344 Z M 304.707031 282.894531 C 313.777344 289.90625 334.023438 306.390625 334.023438 306.390625 C 334.023438 306.390625 340.558594 308.144531 340.980469 307.867188 C 341.332031 307.585938 350.824219 305.832031 357.570312 292.644531 C 364.390625 279.457031 359.328125 256.097656 359.328125 256.097656 C 359.328125 256.097656 355.179688 254.203125 351.667969 253.222656 C 348.152344 252.238281 331.492188 242.277344 324.460938 238.910156 C 317.433594 235.542969 306.324219 228.109375 306.324219 228.109375 C 306.324219 228.109375 300.421875 233.652344 296.765625 237.019531 C 293.109375 240.386719 288.046875 246.417969 282.425781 252.378906 C 276.730469 258.273438 270.964844 259.816406 270.964844 259.816406 C 270.964844 259.816406 295.640625 275.878906 304.707031 282.894531 Z M 304.707031 282.894531 "/>
<path style=" stroke:none;fill-rule:nonzero;fill:rgb(38.819885%,25.099182%,21.958923%);fill-opacity:1;" d="M 192.375 239.121094 C 192.375 239.121094 207.417969 221.65625 212.269531 218.007812 C 217.117188 214.359375 220.773438 210.503906 224.21875 207.277344 C 227.664062 204.050781 241.089844 193.316406 248.609375 190.019531 C 256.132812 186.792969 264.429688 185.742188 267.941406 187.214844 C 271.386719 188.617188 273.425781 193.667969 274.058594 195.703125 C 274.058594 195.703125 271.808594 195.703125 265.90625 197.734375 C 260 199.769531 258.382812 202.574219 255.921875 202.996094 C 253.460938 203.417969 249.804688 203.417969 249.804688 203.417969 C 249.804688 203.417969 251.84375 204.398438 254.445312 205.03125 C 257.117188 205.664062 260.140625 203.417969 264.78125 201.03125 C 269.417969 198.578125 273.074219 196.542969 275.957031 197.175781 C 278.769531 197.804688 281.230469 201.453125 281.863281 203.066406 C 282.496094 204.679688 281.863281 206.503906 281.863281 206.503906 C 281.863281 206.503906 277.996094 207.136719 274.339844 209.941406 C 270.683594 212.746094 265.203125 215.625 263.445312 216.394531 C 261.757812 217.238281 260.140625 218.21875 260.140625 218.21875 C 260.140625 218.21875 263.585938 219.199219 266.605469 216.816406 C 269.628906 214.429688 278.769531 209.730469 280.457031 209.101562 C 282.074219 208.46875 283.898438 208.117188 286.359375 208.46875 C 288.820312 208.890625 292.828125 212.117188 295.710938 215.761719 C 295.710938 215.761719 293.671875 220.253906 288.609375 222.21875 C 283.550781 224.25 278.839844 225.652344 274.761719 227.6875 C 270.683594 229.722656 268.855469 232.316406 267.238281 234.5625 C 265.625 236.808594 267.027344 242.488281 267.027344 242.488281 C 267.027344 242.488281 267.027344 238 269.277344 235.613281 C 271.527344 233.160156 275.605469 227.128906 281.230469 226.707031 C 286.851562 226.285156 292.617188 222.078125 294.445312 219.832031 C 296.273438 217.585938 297.46875 213.800781 299.929688 212.886719 C 302.386719 211.90625 307.238281 214.359375 304.988281 221.234375 C 302.738281 228.109375 299.71875 230.984375 296.273438 233.371094 C 292.828125 235.824219 289.945312 240.246094 283.269531 246.980469 C 276.589844 253.640625 271.457031 256.519531 266.605469 258.550781 C 261.757812 260.585938 262.53125 259.746094 254.023438 265.636719 C 245.519531 271.53125 243.691406 272.933594 231.246094 277.421875 C 218.875 281.910156 205.871094 283.875 205.871094 283.875 C 205.871094 283.875 206.082031 284.296875 206.292969 275.738281 C 206.503906 267.25 204.605469 263.882812 203.269531 261.359375 C 202.074219 259.113281 201.792969 257.851562 199.753906 254.695312 C 195.957031 248.660156 192.375 239.121094 192.375 239.121094 Z M 78.773438 240.386719 C 66.050781 240.523438 36.664062 238.140625 36.664062 238.140625 C 36.664062 238.140625 26.613281 247.46875 25.277344 263.113281 C 23.941406 278.753906 22.957031 291.101562 26.191406 297.835938 C 26.191406 297.835938 64.082031 297.414062 73.289062 297.132812 C 82.5 296.851562 127.066406 295.097656 127.066406 295.097656 C 127.066406 295.097656 125.167969 291.3125 122.992188 286.75 C 120.8125 282.191406 118.421875 263.882812 117.15625 261.710938 C 115.960938 259.535156 116.453125 247.539062 116.101562 245.363281 C 116.171875 245.363281 91.496094 240.246094 78.773438 240.386719 Z M 78.773438 240.386719 "/>
<path style=" stroke:none;fill-rule:nonzero;fill:rgb(53.329468%,29.019165%,23.139954%);fill-opacity:1;" d="M 186.539062 129.765625 C 186.539062 129.765625 186.539062 138.113281 188.296875 141.757812 C 190.054688 145.40625 191.53125 153.753906 193.007812 156.28125 C 194.484375 158.734375 200.035156 174.726562 200.035156 174.726562 L 177.75 198.578125 C 177.75 198.578125 173.464844 192.753906 171.707031 192.125 C 169.949219 191.5625 164.957031 190.933594 162.636719 192.265625 C 160.316406 193.597656 153.570312 196.542969 147.804688 198.578125 C 142.042969 200.613281 126.222656 206.363281 124.886719 206.925781 C 123.554688 207.484375 118.84375 210.644531 115.1875 210.152344 C 111.53125 209.730469 108.578125 202.996094 109.492188 201.382812 C 110.40625 199.769531 117.859375 193.457031 120.8125 192.476562 C 123.765625 191.421875 141.199219 183.074219 141.199219 183.074219 C 141.199219 183.074219 138.878906 182.375 137.402344 182.65625 C 135.925781 182.933594 120.109375 190.863281 117.859375 192.335938 C 115.679688 193.808594 106.824219 202.367188 106.824219 202.367188 C 101.972656 200.542969 101.550781 199.980469 100.496094 197.664062 C 99.441406 195.351562 101.410156 190.722656 101.410156 190.722656 C 101.410156 190.722656 108.578125 181.671875 111.109375 179.917969 C 113.570312 178.164062 129.738281 170.238281 131.636719 168.484375 C 133.535156 166.730469 133.816406 164.207031 133.816406 164.207031 C 133.816406 164.207031 131.144531 167.292969 128.402344 168.765625 C 125.730469 170.238281 112.234375 177.253906 109.703125 179.566406 C 107.171875 181.882812 99.582031 190.722656 98.878906 192.125 C 98.175781 193.597656 95.082031 195.351562 92.691406 195.492188 C 90.371094 195.632812 87.984375 191.210938 90.933594 186.441406 C 93.886719 181.601562 103.097656 170.308594 106.472656 167.433594 C 109.84375 164.488281 116.3125 160.839844 120.53125 159.996094 C 124.816406 159.15625 131.566406 153.964844 132.832031 151.230469 C 132.832031 151.230469 127.417969 155.296875 123.765625 157.050781 C 120.109375 158.804688 114.0625 160.839844 111.320312 162.03125 C 108.507812 163.222656 103.097656 166.660156 101.339844 170.800781 C 99.582031 174.9375 95.503906 178.867188 93.253906 179.566406 C 91.074219 180.269531 89.878906 174.449219 92.199219 170.941406 C 94.519531 167.433594 109.984375 151.019531 115.539062 148.703125 C 121.09375 146.390625 144.429688 137.410156 153.570312 135.09375 C 162.707031 132.78125 186.539062 129.765625 186.539062 129.765625 Z M 308.363281 144.074219 C 316.730469 142.179688 361.648438 131.308594 361.648438 131.308594 C 361.648438 131.308594 362.984375 130.957031 362.210938 125.765625 C 361.4375 120.644531 360.875 113.210938 359.117188 103.671875 C 357.359375 94.128906 350.753906 80.800781 348.644531 78.839844 C 348.644531 78.839844 326.148438 83.539062 312.019531 89.570312 C 297.890625 95.671875 246.363281 113.980469 246.363281 113.980469 C 246.363281 113.980469 256.835938 140.285156 259.507812 144.636719 C 262.179688 148.984375 259.507812 156.28125 259.507812 156.28125 C 259.507812 156.28125 299.929688 145.96875 308.363281 144.074219 Z M 308.363281 144.074219 "/>
<g clip-path="url(#clip1)" clip-rule="nonzero">
<path style=" stroke:none;fill-rule:nonzero;fill:rgb(96.078491%,82.348633%,71.369934%);fill-opacity:1;" d="M 12.90625 112.507812 C 12.90625 112.507812 10.445312 107.527344 11.007812 105.285156 C 11.570312 103.039062 12.34375 90.621094 22.675781 79.1875 C 33.011719 67.753906 43.695312 66.210938 43.695312 66.210938 C 43.695312 66.210938 54.519531 72.316406 60.285156 77.226562 C 66.050781 82.136719 118.984375 140.636719 118.984375 140.636719 C 118.984375 140.636719 107.523438 147.371094 98.597656 158.523438 C 93.675781 164.765625 86.367188 174.378906 86.367188 174.378906 C 86.367188 174.378906 62.675781 156.839844 55.855469 152.632812 C 48.96875 148.421875 25.347656 128.363281 25.347656 128.363281 Z M 201.511719 269.425781 C 200.457031 265.425781 192.867188 248.941406 190.96875 244.875 C 189.070312 240.734375 185.34375 223.128906 183.867188 217.515625 C 182.390625 211.90625 175.433594 201.453125 171.707031 197.457031 C 171.707031 197.457031 163.691406 197.246094 161.722656 198.648438 C 159.828125 200.050781 153.921875 201.875 150.335938 202.855469 C 146.75 203.910156 142.253906 205.171875 138.808594 207.484375 C 135.363281 209.800781 126.785156 211.34375 126.785156 211.34375 C 126.785156 211.34375 120.882812 221.726562 118.351562 227.335938 C 115.820312 232.949219 113.429688 241.859375 113.429688 241.859375 L 119.476562 244.101562 C 119.195312 246.839844 119.125 249.292969 119.617188 250.976562 C 121.304688 257.359375 123.695312 281.140625 127.207031 287.3125 C 130.652344 293.414062 135.152344 297.414062 138.738281 298.957031 C 142.324219 300.5 147.734375 299.589844 149.632812 298.957031 C 151.53125 298.324219 152.867188 293.066406 152.445312 290.117188 C 152.09375 287.171875 144.359375 274.617188 142.8125 270.828125 C 141.269531 266.96875 136.417969 262.761719 136.769531 262.902344 C 137.121094 263.042969 140.847656 265.214844 142.53125 266.96875 C 144.21875 268.792969 149.070312 281.140625 152.304688 285.347656 C 155.539062 289.558594 156.664062 298.746094 162.777344 298.886719 C 168.894531 299.027344 171.214844 295.941406 171.074219 295.027344 C 170.933594 294.117188 169.527344 287.453125 168.542969 284.15625 C 167.488281 280.859375 162.496094 267.671875 161.722656 265.777344 C 160.949219 263.882812 158.140625 258.621094 158.140625 258.621094 C 158.140625 258.621094 160.316406 260.796875 161.863281 262.691406 C 163.410156 264.585938 164.394531 268.164062 165.308594 271.738281 C 166.222656 275.316406 169.949219 284.925781 171.707031 290.398438 C 173.464844 295.871094 173.816406 295.027344 176.207031 295.871094 C 178.664062 296.78125 182.460938 295.097656 184.921875 293.554688 C 187.382812 292.011719 187.382812 289.699219 187.734375 286.402344 C 188.085938 283.105469 186.820312 278.472656 186.046875 276.648438 C 185.273438 274.828125 184.359375 271.53125 182.601562 268.441406 C 180.773438 265.355469 180.421875 260.164062 180.421875 260.164062 C 180.421875 260.164062 182.742188 264.65625 184.359375 268.441406 C 186.046875 272.300781 189.492188 275.105469 189.773438 276.019531 C 190.054688 276.929688 189.914062 281.769531 189.28125 283.664062 C 188.648438 285.558594 188.789062 289.90625 188.789062 289.90625 C 188.789062 289.90625 190.476562 289.769531 192.023438 289.90625 C 193.570312 290.046875 196.730469 288.785156 199.191406 286.820312 C 201.511719 285.066406 202.214844 272.160156 201.511719 269.425781 Z M 201.511719 269.425781 "/>
</g>
</g>
</svg>
