<?xml version="1.0" encoding="UTF-8"?>
<svg xmlns="http://www.w3.org/2000/svg" xmlns:xlink="http://www.w3.org/1999/xlink" width="375pt" height="374.999991pt" viewBox="0 0 375 374.999991" version="1.2">
<defs>
<clipPath id="clip1">
  <path d="M 22.082031 168 L 352.789062 168 L 352.789062 333.894531 L 22.082031 333.894531 Z M 22.082031 168 "/>
</clipPath>
</defs>
<g id="surface1">
<g clip-path="url(#clip1)" clip-rule="nonzero">
<path style=" stroke:none;fill-rule:nonzero;fill:rgb(25.878906%,73.728943%,39.99939%);fill-opacity:1;" d="M 352.375 170.027344 C 343.1875 166.386719 333.117188 171.644531 324.660156 176.695312 C 307.398438 187.035156 290.105469 197.371094 272.871094 207.710938 C 269.4375 209.738281 268.320312 213.96875 269.816406 217.667969 C 274.691406 229.742188 268.4375 245.75 257.191406 253.53125 C 243.921875 262.667969 226.628906 263.136719 210.601562 261.785156 C 197.328125 260.667969 183.851562 258.496094 170.699219 259.847656 C 166.296875 260.289062 162.507812 256.734375 162.507812 252.328125 L 162.507812 252.152344 C 162.507812 247.921875 165.914062 244.515625 170.144531 244.542969 L 234.878906 244.898438 C 241.398438 244.925781 247.828125 242.371094 252.027344 237.347656 C 260.011719 227.800781 253.140625 217.699219 244.597656 214.085938 C 238.578125 211.558594 231.828125 211.558594 225.28125 211.617188 C 206.578125 211.765625 184.910156 213.261719 165.769531 208.269531 C 145.097656 202.867188 129.304688 195.433594 107.605469 202.925781 C 88.316406 209.5625 72.199219 223.132812 58.136719 237.878906 L 24.375 268.511719 C 21.585938 271.039062 21.289062 275.355469 23.757812 278.203125 L 69.527344 331.484375 C 71.933594 334.277344 76.105469 334.714844 79.039062 332.484375 L 124.839844 297.382812 C 128.539062 298.207031 132.414062 298.265625 136.234375 298.265625 C 168.644531 298.265625 201.058594 298.265625 233.5 298.296875 C 238.140625 298.296875 242.953125 298.265625 247.328125 296.679688 C 252.40625 294.800781 256.460938 291.011719 260.394531 287.308594 C 296.742188 252.886719 358.367188 183.421875 352.375 170.027344 "/>
</g>
<path style=" stroke:none;fill-rule:nonzero;fill:rgb(25.878906%,73.728943%,39.99939%);fill-opacity:1;" d="M 199.765625 56.917969 L 192.398438 64.289062 L 185.027344 56.917969 C 177.101562 48.984375 166.5625 44.640625 155.375 44.640625 C 144.160156 44.640625 133.621094 48.984375 125.691406 56.917969 C 109.339844 73.277344 109.339844 99.917969 125.691406 116.277344 L 191.75 182.363281 L 192.398438 181.71875 L 193.042969 182.363281 L 259.070312 116.277344 C 275.453125 99.917969 275.453125 73.277344 259.070312 56.917969 C 242.71875 40.554688 216.121094 40.554688 199.765625 56.917969 "/>
</g>
</svg>
