<?xml version="1.0" encoding="UTF-8"?>
<svg xmlns="http://www.w3.org/2000/svg" xmlns:xlink="http://www.w3.org/1999/xlink" width="375pt" height="374.999991pt" viewBox="0 0 375 374.999991" version="1.2">
<defs>
<clipPath id="clip1">
  <path d="M 44.8125 278 L 315 278 L 315 345.898438 L 44.8125 345.898438 Z M 44.8125 278 "/>
</clipPath>
<clipPath id="clip2">
  <path d="M 179 29.398438 L 329 29.398438 L 329 152 L 179 152 Z M 179 29.398438 "/>
</clipPath>
</defs>
<g id="surface1">
<g clip-path="url(#clip1)" clip-rule="nonzero">
<path style=" stroke:none;fill-rule:nonzero;fill:rgb(25.878906%,73.728943%,39.99939%);fill-opacity:1;" d="M 44.855469 345.761719 L 314.59375 345.761719 L 314.59375 278.609375 L 44.855469 278.609375 L 44.855469 345.761719 "/>
</g>
<path style=" stroke:none;fill-rule:nonzero;fill:rgb(25.878906%,73.728943%,39.99939%);fill-opacity:1;" d="M 279.328125 195.757812 L 266.296875 195.757812 C 264.296875 203.980469 261.089844 211.871094 256.792969 219.210938 L 269.535156 219.210938 L 278.253906 236.640625 L 84.796875 236.640625 L 93.515625 219.210938 L 106.316406 219.210938 C 102.054688 211.882812 98.835938 203.960938 96.8125 195.757812 L 83.699219 195.757812 L 51.523438 260.082031 L 311.519531 260.082031 L 279.328125 195.757812 "/>
<path style=" stroke:none;fill-rule:nonzero;fill:rgb(25.878906%,73.728943%,39.99939%);fill-opacity:1;" d="M 161.917969 201.4375 C 162.640625 199.539062 163.285156 197.609375 163.976562 195.578125 C 164.570312 195.878906 165.0625 196.171875 165.546875 196.421875 C 169.949219 198.761719 174.605469 200.128906 179.605469 199.917969 C 181.453125 199.847656 183.414062 199.488281 185.136719 198.792969 C 192.65625 195.726562 193.792969 186.460938 187.328125 181.3125 C 184.734375 179.261719 181.714844 177.976562 178.648438 176.738281 C 174.839844 175.191406 171.1875 173.359375 167.941406 170.738281 C 160.378906 164.535156 161.171875 152.652344 168.714844 146.78125 C 171.21875 144.851562 174.042969 143.585938 177.109375 142.890625 C 177.523438 142.792969 177.933594 142.691406 178.46875 142.558594 L 178.46875 135.582031 L 184.832031 135.582031 L 184.832031 142.066406 C 187.359375 142.511719 189.769531 142.742188 192.09375 143.355469 C 193.996094 143.878906 195.792969 144.800781 197.625 145.625 C 197.855469 145.726562 198.117188 146.269531 198.035156 146.5 C 197.261719 148.5625 196.417969 150.59375 195.542969 152.753906 C 193.039062 151.253906 190.414062 150.28125 187.640625 149.816406 C 184.289062 149.273438 180.941406 148.992188 177.671875 150.128906 C 174.355469 151.285156 172.164062 153.496094 171.601562 156.996094 C 171.058594 160.445312 172.113281 163.480469 175.121094 165.390625 C 177.652344 166.988281 180.347656 168.292969 183.082031 169.480469 C 186.632812 171.019531 190.164062 172.535156 193.320312 174.808594 C 199.011719 178.871094 201.4375 184.429688 200.480469 191.273438 C 199.554688 197.859375 195.644531 202.261719 189.621094 204.835938 C 187.921875 205.558594 186.089844 205.972656 184.210938 206.5625 L 184.210938 213.722656 L 177.414062 213.722656 L 177.414062 206.925781 C 175.050781 206.585938 172.785156 206.351562 170.574219 205.921875 C 167.6875 205.359375 164.953125 204.292969 162.410156 202.804688 C 161.785156 202.441406 161.664062 202.109375 161.917969 201.4375 Z M 234.921875 224.597656 C 246.796875 211.679688 254.359375 194.421875 254.359375 174.988281 C 254.359375 135.101562 221.980469 102.179688 181.515625 102.179688 C 141.070312 102.179688 108.679688 134.558594 108.679688 174.988281 C 108.679688 193.878906 116.222656 211.679688 128.117188 224.597656 L 234.921875 224.597656 "/>
<g clip-path="url(#clip2)" clip-rule="nonzero">
<path style=" stroke:none;fill-rule:nonzero;fill:rgb(25.878906%,73.728943%,39.99939%);fill-opacity:1;" d="M 328.160156 65.226562 C 326.191406 56.179688 323.074219 48.691406 317.550781 42.800781 C 309.6875 34.136719 299.421875 29.792969 287.214844 29.792969 L 285.65625 29.792969 C 272.652344 30.214844 262.042969 35.3125 254.550781 44.769531 C 251.777344 41.613281 248.238281 38.46875 244.324219 36.105469 C 236.449219 31.390625 227.402344 29.421875 217.132812 30.214844 C 205.730469 31.390625 196.679688 36.488281 189.980469 44.769531 C 182.914062 54.199219 179.332031 64.84375 179.753906 75.871094 C 179.917969 80.074219 180.558594 84.136719 181.65625 88.097656 C 221.386719 88.15625 254.921875 115.007812 265.191406 151.488281 C 275.859375 145.164062 285.492188 138.449219 294.324219 130.941406 C 305.355469 121.902344 313.21875 113.226562 319.492188 103.808594 C 327.789062 91.605469 330.523438 79.019531 328.160156 65.226562 "/>
</g>
</g>
</svg>
