<?xml version="1.0" encoding="UTF-8"?>
<svg xmlns="http://www.w3.org/2000/svg" xmlns:xlink="http://www.w3.org/1999/xlink" width="375pt" height="374.999991pt" viewBox="0 0 375 374.999991" version="1.2">
<defs>
<clipPath id="clip1">
  <path d="M 182 20.929688 L 337 20.929688 L 337 207 L 182 207 Z M 182 20.929688 "/>
</clipPath>
<clipPath id="clip2">
  <path d="M 162 183 L 347.410156 183 L 347.410156 335 L 162 335 Z M 162 183 "/>
</clipPath>
<clipPath id="clip3">
  <path d="M 45 162 L 198 162 L 198 347.742188 L 45 347.742188 Z M 45 162 "/>
</clipPath>
<clipPath id="clip4">
  <path d="M 26.667969 38 L 212 38 L 212 191 L 26.667969 191 Z M 26.667969 38 "/>
</clipPath>
<clipPath id="clip5">
  <path d="M 182 20.929688 L 316 20.929688 L 316 155 L 182 155 Z M 182 20.929688 "/>
</clipPath>
</defs>
<g id="surface1">
<g clip-path="url(#clip1)" clip-rule="nonzero">
<path style=" stroke:none;fill-rule:nonzero;fill:rgb(40.779114%,24.708557%,20.388794%);fill-opacity:1;" d="M 281.007812 206.195312 C 243.71875 137.351562 182.917969 100.679688 182.917969 100.679688 L 190.671875 82.171875 C 190.671875 82.171875 187.972656 79.945312 182.371094 76.394531 C 182.550781 70.671875 194.886719 57.050781 194.886719 57.050781 L 187.757812 50.1875 L 200.507812 31.265625 L 207.441406 35.386719 C 207.441406 35.386719 213.675781 25.742188 216.253906 20.921875 C 240.789062 37.324219 263.5625 57.65625 282.511719 84.523438 C 283.210938 71.214844 293.347656 47.554688 293.347656 47.554688 C 293.347656 47.554688 305.347656 52.320312 310.699219 55.996094 C 300.894531 118.707031 336.257812 201.628906 336.257812 201.628906 L 281.007812 206.195312 "/>
</g>
<g clip-path="url(#clip2)" clip-rule="nonzero">
<path style=" stroke:none;fill-rule:nonzero;fill:rgb(19.219971%,9.799194%,7.839966%);fill-opacity:1;" d="M 162.121094 282.003906 C 230.929688 244.695312 267.589844 183.871094 267.589844 183.871094 L 286.085938 191.628906 C 286.085938 191.628906 288.3125 188.925781 291.863281 183.320312 C 297.582031 183.5 311.195312 195.84375 311.195312 195.84375 L 318.054688 188.710938 L 336.972656 201.46875 L 332.847656 208.402344 C 332.847656 208.402344 342.492188 214.640625 347.308594 217.222656 C 330.910156 241.769531 310.589844 264.550781 283.734375 283.507812 C 297.039062 284.207031 320.6875 294.347656 320.6875 294.347656 C 320.6875 294.347656 315.925781 306.355469 312.246094 311.707031 C 249.570312 301.898438 175.828125 334.5 175.828125 334.5 L 162.121094 282.003906 "/>
</g>
<g clip-path="url(#clip3)" clip-rule="nonzero">
<path style=" stroke:none;fill-rule:nonzero;fill:rgb(80.778503%,67.83905%,63.529968%);fill-opacity:1;" d="M 98.472656 162.46875 C 135.757812 231.308594 196.558594 267.984375 196.558594 267.984375 L 188.800781 286.488281 C 188.800781 286.488281 191.503906 288.71875 197.105469 292.265625 C 196.925781 297.988281 184.589844 311.609375 184.589844 311.609375 L 191.71875 318.472656 L 178.96875 337.398438 L 172.035156 333.273438 C 172.035156 333.273438 165.800781 342.921875 163.21875 347.738281 C 138.6875 331.332031 115.914062 311 96.964844 284.136719 C 96.265625 297.445312 86.132812 321.105469 86.132812 321.105469 C 86.132812 321.105469 74.128906 316.34375 68.777344 312.660156 C 78.582031 249.953125 45.996094 176.179688 45.996094 176.179688 L 98.472656 162.46875 "/>
</g>
<g clip-path="url(#clip4)" clip-rule="nonzero">
<path style=" stroke:none;fill-rule:nonzero;fill:rgb(61.178589%,44.709778%,39.99939%);fill-opacity:1;" d="M 211.9375 91.386719 C 143.128906 128.691406 106.472656 189.515625 106.472656 189.515625 L 87.976562 181.757812 C 87.976562 181.757812 85.746094 184.460938 82.203125 190.066406 C 76.480469 189.886719 62.867188 177.542969 62.867188 177.542969 L 56.003906 184.675781 L 37.089844 171.921875 L 41.214844 164.984375 C 41.214844 164.984375 31.570312 158.746094 26.753906 156.164062 C 43.152344 131.621094 63.472656 108.839844 90.324219 89.878906 C 77.023438 89.183594 53.375 79.042969 53.375 79.042969 C 53.375 79.042969 58.136719 67.035156 61.8125 61.679688 C 124.492188 71.492188 198.234375 38.886719 198.234375 38.886719 L 211.9375 91.386719 "/>
</g>
<g clip-path="url(#clip5)" clip-rule="nonzero">
<path style=" stroke:none;fill-rule:nonzero;fill:rgb(40.779114%,24.708557%,20.388794%);fill-opacity:1;" d="M 315.585938 136.203125 C 310.097656 111.90625 306.484375 82.929688 310.699219 55.996094 C 305.347656 52.320312 293.347656 47.554688 293.347656 47.554688 C 293.347656 47.554688 283.210938 71.214844 282.511719 84.523438 C 263.5625 57.65625 240.789062 37.324219 216.253906 20.921875 C 213.675781 25.742188 207.441406 35.386719 207.441406 35.386719 L 200.507812 31.265625 L 187.261719 51.90625 L 194.886719 57.050781 C 194.886719 57.050781 187.644531 68.746094 182.371094 76.394531 C 187.972656 79.945312 190.671875 82.171875 190.671875 82.171875 L 182.917969 100.679688 C 182.917969 100.679688 213.660156 119.226562 244.828125 154.6875 L 315.585938 136.203125 "/>
</g>
<path style=" stroke:none;fill-rule:nonzero;fill:rgb(61.178589%,44.709778%,39.99939%);fill-opacity:1;" d="M 190.671875 82.171875 C 190.671875 82.171875 204.441406 90.359375 228.410156 115.46875 C 204.441406 90.359375 189.589844 84.761719 189.589844 84.761719 L 190.671875 82.171875 "/>
<path style=" stroke:none;fill-rule:nonzero;fill:rgb(61.178589%,44.709778%,39.99939%);fill-opacity:1;" d="M 194.886719 57.050781 C 194.886719 57.050781 225.667969 80.203125 240.066406 99.4375 C 210.210938 66.933594 192.730469 59.539062 192.730469 59.539062 L 194.886719 57.050781 "/>
<path style=" stroke:none;fill-rule:nonzero;fill:rgb(61.178589%,44.709778%,39.99939%);fill-opacity:1;" d="M 207.441406 35.386719 C 207.441406 35.386719 236.253906 58.507812 248.726562 74.164062 C 229.144531 48.308594 209.039062 32.886719 209.039062 32.886719 L 207.441406 35.386719 "/>
<path style=" stroke:none;fill-rule:nonzero;fill:rgb(80.778503%,67.83905%,63.529968%);fill-opacity:1;" d="M 87.621094 182.082031 C 87.621094 182.082031 95.804688 168.308594 120.90625 144.332031 C 95.804688 168.308594 90.207031 183.171875 90.207031 183.171875 L 87.621094 182.082031 "/>
<path style=" stroke:none;fill-rule:nonzero;fill:rgb(80.778503%,67.83905%,63.529968%);fill-opacity:1;" d="M 62.511719 177.867188 C 62.511719 177.867188 85.65625 147.074219 104.878906 132.671875 C 72.390625 162.539062 64.996094 180.027344 64.996094 180.027344 L 62.511719 177.867188 "/>
<path style=" stroke:none;fill-rule:nonzero;fill:rgb(80.778503%,67.83905%,63.529968%);fill-opacity:1;" d="M 40.859375 165.308594 C 40.859375 165.308594 63.96875 136.480469 79.621094 124.007812 C 53.773438 143.59375 38.359375 163.710938 38.359375 163.710938 L 40.859375 165.308594 "/>
<path style=" stroke:none;fill-rule:nonzero;fill:rgb(19.219971%,9.799194%,7.839966%);fill-opacity:1;" d="M 188.800781 286.488281 C 188.800781 286.488281 175.035156 278.300781 151.066406 253.191406 C 175.035156 278.300781 189.890625 283.902344 189.890625 283.902344 L 188.800781 286.488281 "/>
<path style=" stroke:none;fill-rule:nonzero;fill:rgb(19.219971%,9.799194%,7.839966%);fill-opacity:1;" d="M 184.589844 311.609375 C 184.589844 311.609375 153.8125 288.457031 139.410156 269.21875 C 169.265625 301.730469 186.746094 309.121094 186.746094 309.121094 L 184.589844 311.609375 "/>
<path style=" stroke:none;fill-rule:nonzero;fill:rgb(19.219971%,9.799194%,7.839966%);fill-opacity:1;" d="M 172.035156 333.273438 C 172.035156 333.273438 143.222656 310.152344 130.753906 294.496094 C 150.332031 320.351562 170.4375 335.773438 170.4375 335.773438 L 172.035156 333.273438 "/>
<path style=" stroke:none;fill-rule:nonzero;fill:rgb(40.779114%,24.708557%,20.388794%);fill-opacity:1;" d="M 286.085938 191.628906 C 286.085938 191.628906 277.902344 205.402344 252.800781 229.382812 C 277.902344 205.402344 283.5 190.542969 283.5 190.542969 L 286.085938 191.628906 "/>
<path style=" stroke:none;fill-rule:nonzero;fill:rgb(40.779114%,24.708557%,20.388794%);fill-opacity:1;" d="M 311.195312 195.84375 C 311.195312 195.84375 288.050781 226.636719 268.828125 241.039062 C 301.320312 211.175781 308.710938 193.6875 308.710938 193.6875 L 311.195312 195.84375 "/>
<path style=" stroke:none;fill-rule:nonzero;fill:rgb(40.779114%,24.708557%,20.388794%);fill-opacity:1;" d="M 332.847656 208.402344 C 332.847656 208.402344 309.738281 237.234375 294.085938 249.707031 C 319.933594 230.117188 335.347656 210.003906 335.347656 210.003906 L 332.847656 208.402344 "/>
</g>
</svg>
